<svg xmlns="http://www.w3.org/2000/svg" width="1024" height="1024" viewBox="0 0 1024 1024">
<g>
<path d="M 539.50 633.60 C524.10,633.84 508.80,634.14 505.50,634.27 C495.40,634.66 455.21,633.22 442.50,632.01 C427.27,630.57 406.88,627.30 401.58,625.45 C399.34,624.67 396.66,624.02 395.64,624.01 C393.04,623.99 373.71,617.39 366.50,614.05 C355.58,609.00 336.50,595.40 327.06,585.94 C322.35,581.22 313.52,570.66 311.50,567.33 C298.40,545.73 295.32,539.34 290.89,524.50 C286.37,509.35 284.00,493.74 284.00,479.02 C284.00,470.02 283.63,465.94 282.75,465.22 C281.68,464.33 256.95,451.38 243.00,444.39 C236.71,441.24 231.40,435.39 230.00,430.07 C227.18,419.39 233.26,407.43 243.00,404.51 C244.38,404.10 246.18,403.22 247.00,402.55 C248.53,401.30 249.42,400.84 266.00,392.64 C271.23,390.05 276.17,387.52 277.00,387.02 C277.83,386.52 283.45,383.60 289.50,380.53 C295.55,377.46 301.62,374.35 303.00,373.63 C308.10,370.96 312.19,368.88 343.00,353.28 C360.33,344.51 378.77,335.20 384.00,332.60 C389.23,329.99 394.40,327.36 395.50,326.74 C396.60,326.13 406.95,320.82 418.50,314.94 C449.50,299.18 478.22,284.49 480.50,283.25 C494.49,275.60 502.69,272.80 511.17,272.80 C520.79,272.80 520.91,272.86 594.50,310.51 C607.15,316.99 624.47,325.85 633.00,330.21 C641.53,334.57 649.17,338.53 650.00,339.01 C650.83,339.48 652.85,340.54 654.50,341.35 C656.15,342.16 664.70,346.49 673.50,350.98 C682.30,355.47 693.55,361.18 698.50,363.69 C703.45,366.19 708.17,368.61 709.00,369.07 C709.83,369.53 713.88,371.62 718.00,373.72 C722.12,375.82 728.20,378.94 731.50,380.66 C734.80,382.38 742.67,386.38 749.00,389.54 C780.23,405.15 786.30,408.97 789.00,414.72 C791.61,420.27 791.65,428.80 789.11,433.79 C785.87,440.14 783.89,441.47 758.50,454.45 C739.28,464.28 737.82,465.17 736.99,467.52 C736.61,468.60 736.52,474.66 736.78,480.99 C737.28,493.15 735.39,506.50 730.83,523.00 C728.29,532.21 721.80,547.49 719.20,550.37 C718.15,551.54 716.08,554.75 714.62,557.50 C710.35,565.51 702.26,575.67 692.09,585.83 C683.77,594.14 675.08,601.00 672.87,601.00 C672.47,601.00 671.97,577.04 671.76,547.75 C671.40,496.58 671.30,494.19 669.18,486.56 C664.19,468.52 653.42,452.83 639.50,443.32 C635.82,440.80 618.47,431.83 561.56,403.01 C523.46,383.72 517.01,380.75 512.93,380.69 C503.99,380.56 498.64,386.67 499.26,396.30 C499.59,401.35 500.08,402.53 503.07,405.44 C505.17,407.49 518.49,414.87 537.50,424.52 C567.67,439.84 613.70,463.32 621.25,467.25 C629.28,471.43 637.67,483.63 639.98,494.51 C640.67,497.79 640.94,519.74 640.77,558.49 L 640.50 617.48 L 634.00 619.73 C630.42,620.97 626.15,622.65 624.50,623.47 C620.16,625.62 598.79,629.69 582.00,631.55 C573.80,632.46 555.34,633.35 539.50,633.60 Z" fill="rgb(112,79,156)"/>
<path d="M 667.85 773.37 C656.26,776.71 643.07,774.63 632.50,767.81 C624.62,762.72 618.85,754.48 616.35,744.73 C613.69,734.39 615.02,725.73 624.45,692.00 C625.14,689.53 626.95,682.96 628.47,677.41 L 631.24 667.33 L 627.43 661.59 C624.36,656.97 623.53,654.70 623.19,649.96 C622.57,641.41 623.55,637.83 628.54,630.38 C630.99,626.73 633.00,623.52 633.00,623.26 C633.00,622.65 628.84,623.20 619.60,625.07 C621.87,624.47 623.57,623.93 624.50,623.47 C626.15,622.65 630.42,620.97 634.00,619.73 L 640.50 617.48 L 640.77 558.49 C640.94,519.74 640.67,497.79 639.98,494.51 C637.67,483.63 629.28,471.43 621.25,467.25 C613.70,463.32 567.67,439.84 537.50,424.52 C518.49,414.87 505.17,407.49 503.07,405.44 C500.08,402.53 499.59,401.35 499.26,396.30 C498.64,386.67 503.99,380.56 512.93,380.69 C517.01,380.75 523.46,383.72 561.56,403.01 C618.47,431.83 635.82,440.80 639.50,443.32 C653.42,452.83 664.19,468.52 669.18,486.56 C671.30,494.19 671.40,496.58 671.76,547.75 C671.97,577.04 672.47,601.00 672.87,601.00 C675.08,601.00 683.77,594.14 692.09,585.83 C702.26,575.67 710.35,565.51 714.62,557.50 C716.08,554.75 718.15,551.54 719.20,550.37 C721.66,547.64 727.63,533.76 730.41,524.48 C730.10,525.52 729.78,526.53 729.46,527.52 C726.51,536.56 720.33,550.54 717.80,553.88 C716.81,555.20 715.99,556.77 715.97,557.38 C715.93,558.82 708.67,569.35 703.50,575.48 C693.87,586.90 681.66,598.07 675.93,600.72 L 672.05 602.50 L 672.03 610.61 L 672.00 618.73 L 676.05 621.54 C690.18,631.33 694.05,648.96 684.92,661.92 C684.05,663.15 683.35,663.89 682.91,664.76 C681.59,667.35 682.57,671.12 688.16,692.69 C688.85,695.34 689.61,698.27 690.45,701.50 C696.78,726.01 697.14,728.02 696.79,736.60 C696.47,744.47 695.97,746.62 693.09,752.47 C687.51,763.81 680.28,769.80 667.85,773.37 ZM 736.75 489.41 C736.88,486.53 736.89,483.73 736.78,480.99 C736.52,474.66 736.61,468.60 736.99,467.52 C737.82,465.17 739.28,464.28 758.50,454.45 C783.89,441.47 785.87,440.14 789.11,433.79 C791.65,428.80 791.61,420.27 789.00,414.72 C786.30,408.97 780.23,405.15 749.00,389.54 C742.67,386.38 734.80,382.38 731.50,380.66 C728.20,378.94 722.12,375.82 718.00,373.72 C713.88,371.62 709.83,369.53 709.00,369.07 C708.17,368.61 703.45,366.19 698.50,363.69 C693.55,361.18 682.30,355.47 673.50,350.98 C664.70,346.49 656.15,342.16 654.50,341.35 C652.85,340.54 650.83,339.48 650.00,339.01 C649.17,338.53 641.53,334.57 633.00,330.21 C624.47,325.85 607.15,316.99 594.50,310.51 C520.91,272.86 520.79,272.80 511.17,272.80 C502.69,272.80 494.49,275.60 480.50,283.25 C478.22,284.49 449.50,299.18 418.50,314.94 C406.95,320.82 396.60,326.13 395.50,326.74 C394.40,327.36 389.23,329.99 384.00,332.60 C378.77,335.20 360.33,344.51 343.00,353.28 C312.19,368.88 308.10,370.96 303.00,373.63 C301.62,374.35 295.55,377.46 289.50,380.53 C283.45,383.60 277.83,386.52 277.00,387.02 C276.17,387.52 271.23,390.05 266.00,392.64 C249.42,400.84 248.53,401.30 247.00,402.55 C246.18,403.22 244.38,404.10 243.00,404.51 C233.26,407.43 227.18,419.39 230.00,430.07 C231.40,435.39 236.71,441.24 243.00,444.39 C256.95,451.38 281.68,464.33 282.75,465.22 C283.63,465.94 284.00,470.02 284.00,479.02 C284.00,493.74 286.37,509.35 290.89,524.50 C294.89,537.89 297.79,544.40 307.94,561.42 C306.40,559.04 304.57,556.51 303.29,555.04 C300.27,551.57 294.50,539.47 291.59,530.50 C285.75,512.52 283.24,498.10 282.69,479.38 C282.47,471.96 281.95,468.57 280.71,466.68 C279.65,465.06 273.96,461.57 265.27,457.19 C241.88,445.43 237.62,442.95 233.93,438.99 C228.27,432.90 226.44,423.68 229.45,416.47 C232.85,408.33 236.85,405.14 253.50,397.29 C255.15,396.51 257.40,395.37 258.50,394.75 C260.89,393.40 286.89,380.01 303.00,371.82 C309.33,368.61 315.17,365.57 316.00,365.07 C316.83,364.58 323.58,361.14 331.00,357.44 C338.42,353.74 345.62,350.10 347.00,349.36 C348.38,348.62 355.58,345.02 363.00,341.38 C370.42,337.73 383.70,330.98 392.50,326.37 C401.30,321.77 410.98,316.84 414.00,315.42 C420.82,312.22 429.92,307.54 436.50,303.85 C439.25,302.31 442.20,300.79 443.06,300.46 C443.91,300.13 448.86,297.66 454.06,294.95 C483.24,279.77 498.56,272.77 504.40,271.94 C511.17,270.99 517.39,271.54 523.96,273.67 C527.68,274.88 542.52,281.92 548.00,285.09 C548.83,285.56 557.83,290.16 568.00,295.30 C582.66,302.71 611.81,317.62 637.00,330.59 C638.38,331.30 640.62,332.37 642.00,332.97 C643.38,333.57 648.55,336.20 653.50,338.81 C658.45,341.42 678.70,351.84 698.50,361.97 C718.30,372.09 742.15,384.30 751.50,389.10 C760.85,393.89 771.20,399.19 774.50,400.87 C786.97,407.20 792.25,414.03 792.39,424.00 C792.44,427.67 791.76,431.00 790.33,434.00 C786.85,441.36 786.36,441.70 759.64,455.40 C752.02,459.30 744.43,463.21 742.77,464.08 C737.89,466.64 737.07,469.23 737.04,482.24 C737.03,484.48 736.93,486.88 736.75,489.41 ZM 539.50 633.60 C554.55,633.37 571.95,632.55 580.69,631.69 C565.97,633.22 539.23,634.03 512.26,634.10 C518.91,633.95 529.18,633.76 539.50,633.60 ZM 467.50 633.45 C458.74,633.14 450.92,632.73 444.67,632.20 C450.08,632.63 458.53,633.08 467.50,633.45 ZM 730.75 523.30 C730.78,523.20 730.80,523.10 730.83,523.00 C731.25,521.48 731.65,519.98 732.03,518.51 C731.62,520.15 731.19,521.75 730.75,523.30 ZM 324.86 583.65 C325.66,584.50 326.40,585.28 327.06,585.94 C327.79,586.68 328.59,587.44 329.44,588.23 C328.59,587.44 327.79,586.68 327.06,585.94 C326.37,585.26 325.64,584.48 324.86,583.65 Z" fill="rgb(207,141,57)"/>
<path d="M 728.50 837.72 C722.06,839.27 704.98,839.42 516.00,839.56 C402.98,839.65 309.15,839.54 307.50,839.33 C300.05,838.38 284.03,834.61 277.58,832.29 C259.16,825.67 242.25,815.02 227.14,800.50 C210.33,784.34 199.24,767.09 191.66,745.31 C190.74,742.69 189.96,740.62 189.27,738.52 C184.90,725.02 184.93,710.11 185.17,540.53 C185.19,530.41 185.20,519.75 185.22,508.50 C185.48,314.51 185.60,302.09 187.29,295.50 C191.11,280.52 193.40,274.06 198.99,262.46 C212.52,234.39 235.52,211.66 264.19,198.03 C282.17,189.48 293.96,186.49 315.50,184.99 C333.54,183.74 687.22,183.73 707.55,184.98 C715.83,185.49 726.77,186.83 731.86,187.97 C748.42,191.66 771.49,201.93 781.70,210.17 C784.34,212.30 789.34,216.36 792.80,219.19 C811.56,234.53 828.33,260.89 834.42,284.60 C835.26,287.84 836.73,293.42 837.71,297.00 C839.36,303.10 839.49,316.19 839.76,509.00 C840.04,713.07 840.03,714.58 837.98,725.50 C832.19,756.34 819.25,780.37 797.27,801.11 C777.18,820.05 756.80,830.91 728.50,837.72 ZM 667.85 773.37 C680.28,769.80 687.51,763.81 693.09,752.47 C695.97,746.62 696.47,744.47 696.79,736.60 C697.14,728.02 696.78,726.01 690.45,701.50 C689.61,698.27 688.85,695.34 688.16,692.69 C682.57,671.12 681.59,667.35 682.91,664.76 C683.35,663.89 684.05,663.15 684.92,661.92 C694.05,648.96 690.18,631.33 676.05,621.54 L 672.00 618.73 L 672.03 610.61 L 672.05 602.50 L 675.93 600.72 C681.66,598.07 693.87,586.90 703.50,575.48 C708.67,569.35 715.93,558.82 715.97,557.38 C715.99,556.77 716.81,555.20 717.80,553.88 C720.33,550.54 726.51,536.56 729.46,527.52 C729.78,526.53 730.10,525.52 730.41,524.48 C730.53,524.08 730.64,523.69 730.75,523.30 C731.19,521.75 731.62,520.15 732.03,518.51 C734.80,507.63 736.34,498.14 736.75,489.41 C736.93,486.88 737.03,484.48 737.04,482.24 C737.07,469.23 737.89,466.64 742.77,464.08 C744.43,463.21 752.02,459.30 759.64,455.40 C786.36,441.70 786.85,441.36 790.33,434.00 C791.76,431.00 792.44,427.67 792.39,424.00 C792.25,414.03 786.97,407.20 774.50,400.87 C771.20,399.19 760.85,393.89 751.50,389.10 C742.15,384.30 718.30,372.09 698.50,361.97 C678.70,351.84 658.45,341.42 653.50,338.81 C648.55,336.20 643.38,333.57 642.00,332.97 C640.62,332.37 638.38,331.30 637.00,330.59 C611.81,317.62 582.66,302.71 568.00,295.30 C557.83,290.16 548.83,285.56 548.00,285.09 C542.52,281.92 527.68,274.88 523.96,273.67 C517.39,271.54 511.17,270.99 504.40,271.94 C498.56,272.77 483.24,279.77 454.06,294.95 C448.86,297.66 443.91,300.13 443.06,300.46 C442.20,300.79 439.25,302.31 436.50,303.85 C429.92,307.54 420.82,312.22 414.00,315.42 C410.98,316.84 401.30,321.77 392.50,326.37 C383.70,330.98 370.42,337.73 363.00,341.38 C355.58,345.02 348.38,348.62 347.00,349.36 C345.62,350.10 338.42,353.74 331.00,357.44 C323.58,361.14 316.83,364.58 316.00,365.07 C315.17,365.57 309.33,368.61 303.00,371.82 C286.89,380.01 260.89,393.40 258.50,394.75 C257.40,395.37 255.15,396.51 253.50,397.29 C236.85,405.14 232.85,408.33 229.45,416.47 C226.44,423.68 228.27,432.90 233.93,438.99 C237.62,442.95 241.88,445.43 265.27,457.19 C273.96,461.57 279.65,465.06 280.71,466.68 C281.95,468.57 282.47,471.96 282.69,479.38 C283.24,498.10 285.75,512.52 291.59,530.50 C294.50,539.47 300.27,551.57 303.29,555.04 C304.57,556.51 306.40,559.04 307.94,561.42 C309.04,563.26 310.22,565.22 311.50,567.33 C313.24,570.20 320.01,578.40 324.86,583.65 L 324.87 583.65 C325.64,584.49 326.37,585.26 327.06,585.94 C327.79,586.68 328.59,587.44 329.44,588.23 C339.43,597.47 356.43,609.39 366.50,614.05 C373.71,617.39 393.04,623.99 395.64,624.01 C396.66,624.02 399.34,624.67 401.58,625.45 C406.88,627.30 427.27,630.57 442.50,632.01 C443.15,632.07 443.88,632.14 444.67,632.20 L 444.67 632.20 C450.92,632.73 458.75,633.14 467.50,633.45 C482.73,634.08 499.47,634.50 505.50,634.27 C506.59,634.23 508.99,634.17 512.26,634.10 C539.23,634.03 565.97,633.22 580.69,631.69 C581.15,631.64 581.59,631.60 582.00,631.55 C595.21,630.09 611.25,627.26 619.60,625.07 C628.84,623.20 633.00,622.65 633.00,623.26 C633.00,623.52 630.99,626.73 628.54,630.38 C623.55,637.83 622.57,641.41 623.19,649.96 C623.53,654.70 624.36,656.97 627.43,661.59 L 631.24 667.33 L 628.47 677.41 C626.95,682.96 625.14,689.53 624.45,692.00 C615.02,725.73 613.69,734.39 616.35,744.73 C618.85,754.48 624.62,762.72 632.50,767.81 C643.07,774.63 656.26,776.71 667.85,773.37 Z" fill="rgb(249,63,1)"/>
<path d="M 0.00 512.00 L 0.00 0.00 L 512.00 0.00 L 1024.00 0.00 L 1024.00 512.00 L 1024.00 1024.00 L 512.00 1024.00 L 0.00 1024.00 L 0.00 512.00 ZM 728.50 837.72 C756.80,830.91 777.18,820.05 797.27,801.11 C819.25,780.37 832.19,756.34 837.98,725.50 C840.03,714.58 840.04,713.07 839.76,509.00 C839.49,316.19 839.36,303.10 837.71,297.00 C836.73,293.42 835.26,287.84 834.42,284.60 C828.33,260.89 811.56,234.53 792.80,219.19 C789.34,216.36 784.34,212.30 781.70,210.17 C771.49,201.93 748.42,191.66 731.86,187.97 C726.77,186.83 715.83,185.49 707.55,184.98 C687.22,183.73 333.54,183.74 315.50,184.99 C293.96,186.49 282.17,189.48 264.19,198.03 C235.52,211.66 212.52,234.39 198.99,262.46 C193.40,274.06 191.11,280.52 187.29,295.50 C185.60,302.09 185.48,314.51 185.22,508.50 C184.90,737.76 184.55,724.91 191.66,745.31 C199.24,767.09 210.33,784.34 227.14,800.50 C242.25,815.02 259.16,825.67 277.58,832.29 C284.03,834.61 300.05,838.38 307.50,839.33 C309.15,839.54 402.98,839.65 516.00,839.56 C704.98,839.42 722.06,839.27 728.50,837.72 Z" fill="rgb(254,254,254)"/>
</g>
</svg>